<svg id="Layer_1" data-name="Layer 1" xmlns="http://www.w3.org/2000/svg" viewBox="0 0 14.5 16"><defs><style>.cls-1{fill:#13f36d;}</style></defs><title>availabilityt</title><path class="cls-1" d="M11,7h1a.5.5,0,0,1,0,1H11V9a.5.5,0,0,1-1,0V8H9A.5.5,0,0,1,9,7h1V6a.5.5,0,0,1,1,0ZM5.32,4H8a.5.5,0,0,1,.35.85A.47.47,0,0,1,8,5H5.53l1.25,6H14.1l1.28-6H13a.5.5,0,0,1-.35-.85A.47.47,0,0,1,13,4h3a.59.59,0,0,1,.22,0,.55.55,0,0,1,.17.14.44.44,0,0,1,.1.19.89.89,0,0,1,0,.23l-1.5,7a.47.47,0,0,1-.18.29.49.49,0,0,1-.31.11H7l.42,2H14a2.06,2.06,0,0,1,1.22.41,2,2,0,0,1,.71,1.07A2,2,0,0,1,15,17.73a2,2,0,0,1-1.26.25A2,2,0,0,1,12,16.26,2,2,0,0,1,12.27,15H8.73a2,2,0,0,1-1.25,2.94,2,2,0,0,1-1.21-.08,2,2,0,0,1-.86-3.07,2,2,0,0,1,1-.7L4.09,3H2.5a.47.47,0,0,1-.35-.15.48.48,0,0,1,0-.7A.47.47,0,0,1,2.5,2h2a.54.54,0,0,1,.32.11A.48.48,0,0,1,5,2.4L5.32,4ZM8,16a1,1,0,0,0-.07-.39.92.92,0,0,0-.21-.34,1.06,1.06,0,0,0-.33-.22A.85.85,0,0,0,7,15a.88.88,0,0,0-.39.08,1.19,1.19,0,0,0-.33.22,1.08,1.08,0,0,0-.21.34A1,1,0,0,0,6,16a1.06,1.06,0,0,0,.3.69,1,1,0,0,0,1.4,0A1,1,0,0,0,8,16Zm7,0a1,1,0,0,0-.07-.39.92.92,0,0,0-.21-.34,1.06,1.06,0,0,0-.33-.22A.85.85,0,0,0,14,15a.88.88,0,0,0-.39.08,1.19,1.19,0,0,0-.33.22,1.08,1.08,0,0,0-.21.34A1,1,0,0,0,13,16a1.06,1.06,0,0,0,.3.69,1,1,0,0,0,1.4,0A1,1,0,0,0,15,16Z" transform="translate(-2 -2)"/></svg>